<mxfile host="app.diagrams.net" modified="2023-11-13T14:01:05.017Z" agent="Mozilla/5.0 (Windows NT 10.0; Win64; x64) AppleWebKit/537.36 (KHTML, like Gecko) Chrome/119.0.0.0 Safari/537.36" etag="W4iInO4hBLnuPJK5EcjE" version="22.1.0" type="device">
  <diagram name="Page-1" id="2YBvvXClWsGukQMizWep">
    <mxGraphModel dx="794" dy="464" grid="1" gridSize="10" guides="1" tooltips="1" connect="1" arrows="1" fold="1" page="1" pageScale="1" pageWidth="850" pageHeight="1100" math="0" shadow="0">
      <root>
        <mxCell id="0" />
        <mxCell id="1" parent="0" />
        <mxCell id="Obuxjyc1HBuS5wtZss2o-2" value="" style="whiteSpace=wrap;html=1;aspect=fixed;" parent="1" vertex="1">
          <mxGeometry x="120" y="340" width="1090" height="1090" as="geometry" />
        </mxCell>
        <mxCell id="Obuxjyc1HBuS5wtZss2o-11" value="View" style="shape=umlLifeline;perimeter=lifelinePerimeter;whiteSpace=wrap;html=1;container=1;dropTarget=0;collapsible=0;recursiveResize=0;outlineConnect=0;portConstraint=eastwest;newEdgeStyle={&quot;curved&quot;:0,&quot;rounded&quot;:0};" parent="1" vertex="1">
          <mxGeometry x="370" y="380" width="100" height="470" as="geometry" />
        </mxCell>
        <mxCell id="Obuxjyc1HBuS5wtZss2o-8" value="" style="shape=umlLifeline;perimeter=lifelinePerimeter;whiteSpace=wrap;html=1;container=1;dropTarget=0;collapsible=0;recursiveResize=0;outlineConnect=0;portConstraint=eastwest;newEdgeStyle={&quot;curved&quot;:0,&quot;rounded&quot;:0};participant=umlActor;size=40;" parent="1" vertex="1">
          <mxGeometry x="240" y="380" width="20" height="450" as="geometry" />
        </mxCell>
        <mxCell id="Obuxjyc1HBuS5wtZss2o-9" value="" style="html=1;points=[[0,0,0,0,5],[0,1,0,0,-5],[1,0,0,0,5],[1,1,0,0,-5]];perimeter=orthogonalPerimeter;outlineConnect=0;targetShapes=umlLifeline;portConstraint=eastwest;newEdgeStyle={&quot;curved&quot;:0,&quot;rounded&quot;:0};" parent="1" vertex="1">
          <mxGeometry x="415" y="470" width="10" height="330" as="geometry" />
        </mxCell>
        <mxCell id="Obuxjyc1HBuS5wtZss2o-10" value="1.Input Group student infor" style="html=1;verticalAlign=bottom;startArrow=none;endArrow=block;startSize=8;curved=0;rounded=0;entryX=0;entryY=0;entryDx=0;entryDy=5;startFill=0;" parent="1" source="Obuxjyc1HBuS5wtZss2o-8" target="Obuxjyc1HBuS5wtZss2o-9" edge="1">
          <mxGeometry relative="1" as="geometry">
            <mxPoint x="270" y="525" as="sourcePoint" />
          </mxGeometry>
        </mxCell>
        <mxCell id="Obuxjyc1HBuS5wtZss2o-13" value=":Group Student controller" style="shape=umlLifeline;perimeter=lifelinePerimeter;whiteSpace=wrap;html=1;container=1;dropTarget=0;collapsible=0;recursiveResize=0;outlineConnect=0;portConstraint=eastwest;newEdgeStyle={&quot;curved&quot;:0,&quot;rounded&quot;:0};" parent="1" vertex="1">
          <mxGeometry x="510" y="380" width="100" height="450" as="geometry" />
        </mxCell>
        <mxCell id="Obuxjyc1HBuS5wtZss2o-14" value="2.Click button Create" style="html=1;verticalAlign=bottom;startArrow=none;endArrow=block;startSize=8;curved=0;rounded=0;entryX=0;entryY=0;entryDx=0;entryDy=5;startFill=0;" parent="1" edge="1">
          <mxGeometry relative="1" as="geometry">
            <mxPoint x="250.19" y="510" as="sourcePoint" />
            <mxPoint x="415.19" y="510" as="targetPoint" />
          </mxGeometry>
        </mxCell>
        <mxCell id="Obuxjyc1HBuS5wtZss2o-17" value="" style="html=1;points=[[0,0,0,0,5],[0,1,0,0,-5],[1,0,0,0,5],[1,1,0,0,-5]];perimeter=orthogonalPerimeter;outlineConnect=0;targetShapes=umlLifeline;portConstraint=eastwest;newEdgeStyle={&quot;curved&quot;:0,&quot;rounded&quot;:0};" parent="1" vertex="1">
          <mxGeometry x="555" y="510" width="10" height="280" as="geometry" />
        </mxCell>
        <mxCell id="Obuxjyc1HBuS5wtZss2o-18" value="3.saveGroupStudent()" style="html=1;verticalAlign=bottom;startArrow=none;endArrow=block;startSize=8;curved=0;rounded=0;startFill=0;" parent="1" source="Obuxjyc1HBuS5wtZss2o-9" target="Obuxjyc1HBuS5wtZss2o-17" edge="1">
          <mxGeometry relative="1" as="geometry">
            <mxPoint x="400" y="549" as="sourcePoint" />
            <mxPoint x="565" y="549" as="targetPoint" />
            <Array as="points">
              <mxPoint x="500" y="530" />
            </Array>
          </mxGeometry>
        </mxCell>
        <mxCell id="Obuxjyc1HBuS5wtZss2o-21" value=":Group Student service" style="shape=umlLifeline;perimeter=lifelinePerimeter;whiteSpace=wrap;html=1;container=1;dropTarget=0;collapsible=0;recursiveResize=0;outlineConnect=0;portConstraint=eastwest;newEdgeStyle={&quot;curved&quot;:0,&quot;rounded&quot;:0};" parent="1" vertex="1">
          <mxGeometry x="660" y="380" width="100" height="440" as="geometry" />
        </mxCell>
        <mxCell id="Obuxjyc1HBuS5wtZss2o-22" value="" style="html=1;points=[[0,0,0,0,5],[0,1,0,0,-5],[1,0,0,0,5],[1,1,0,0,-5]];perimeter=orthogonalPerimeter;outlineConnect=0;targetShapes=umlLifeline;portConstraint=eastwest;newEdgeStyle={&quot;curved&quot;:0,&quot;rounded&quot;:0};" parent="1" vertex="1">
          <mxGeometry x="705" y="530" width="10" height="240" as="geometry" />
        </mxCell>
        <mxCell id="Obuxjyc1HBuS5wtZss2o-23" value="4.saveGroupStudent()" style="html=1;verticalAlign=bottom;startArrow=none;endArrow=block;startSize=8;curved=0;rounded=0;startFill=0;" parent="1" edge="1">
          <mxGeometry relative="1" as="geometry">
            <mxPoint x="565" y="550" as="sourcePoint" />
            <mxPoint x="705" y="550" as="targetPoint" />
            <Array as="points">
              <mxPoint x="655" y="550" />
            </Array>
          </mxGeometry>
        </mxCell>
        <mxCell id="Obuxjyc1HBuS5wtZss2o-24" value="&lt;font size=&quot;1&quot;&gt;Alt register Goup student&lt;/font&gt;&amp;nbsp;" style="shape=umlFrame;whiteSpace=wrap;html=1;pointerEvents=0;width=80;height=30;" parent="1" vertex="1">
          <mxGeometry x="210" y="570" width="900" height="330" as="geometry" />
        </mxCell>
        <mxCell id="Obuxjyc1HBuS5wtZss2o-25" value=":Group Student Repository" style="shape=umlLifeline;perimeter=lifelinePerimeter;whiteSpace=wrap;html=1;container=1;dropTarget=0;collapsible=0;recursiveResize=0;outlineConnect=0;portConstraint=eastwest;newEdgeStyle={&quot;curved&quot;:0,&quot;rounded&quot;:0};" parent="1" vertex="1">
          <mxGeometry x="810" y="380" width="100" height="430" as="geometry" />
        </mxCell>
        <mxCell id="Obuxjyc1HBuS5wtZss2o-26" value="Database" style="shape=umlLifeline;perimeter=lifelinePerimeter;whiteSpace=wrap;html=1;container=1;dropTarget=0;collapsible=0;recursiveResize=0;outlineConnect=0;portConstraint=eastwest;newEdgeStyle={&quot;curved&quot;:0,&quot;rounded&quot;:0};" parent="1" vertex="1">
          <mxGeometry x="970" y="380" width="100" height="440" as="geometry" />
        </mxCell>
        <mxCell id="Obuxjyc1HBuS5wtZss2o-27" value="" style="endArrow=none;dashed=1;html=1;rounded=0;entryX=1.004;entryY=0.502;entryDx=0;entryDy=0;entryPerimeter=0;exitX=0;exitY=0.501;exitDx=0;exitDy=0;exitPerimeter=0;" parent="1" edge="1">
          <mxGeometry width="50" height="50" relative="1" as="geometry">
            <mxPoint x="210" y="645.3299999999999" as="sourcePoint" />
            <mxPoint x="1113.6" y="645.6599999999999" as="targetPoint" />
          </mxGeometry>
        </mxCell>
        <mxCell id="Obuxjyc1HBuS5wtZss2o-28" value="[Invalid infor]" style="text;html=1;strokeColor=none;fillColor=none;align=center;verticalAlign=middle;whiteSpace=wrap;rounded=0;" parent="1" vertex="1">
          <mxGeometry x="250" y="610" width="80" height="30" as="geometry" />
        </mxCell>
        <mxCell id="Obuxjyc1HBuS5wtZss2o-31" value="5.1: Return invalid view" style="html=1;verticalAlign=bottom;endArrow=open;dashed=1;endSize=8;curved=0;rounded=0;" parent="1" edge="1">
          <mxGeometry relative="1" as="geometry">
            <mxPoint x="705" y="600" as="sourcePoint" />
            <mxPoint x="565" y="600" as="targetPoint" />
          </mxGeometry>
        </mxCell>
        <mxCell id="Obuxjyc1HBuS5wtZss2o-32" value="5.2: Return invalid view" style="html=1;verticalAlign=bottom;endArrow=open;dashed=1;endSize=8;curved=0;rounded=0;" parent="1" source="Obuxjyc1HBuS5wtZss2o-17" target="Obuxjyc1HBuS5wtZss2o-9" edge="1">
          <mxGeometry relative="1" as="geometry">
            <mxPoint x="555" y="620" as="sourcePoint" />
            <mxPoint x="425" y="620" as="targetPoint" />
            <Array as="points">
              <mxPoint x="490" y="620" />
            </Array>
          </mxGeometry>
        </mxCell>
        <mxCell id="Obuxjyc1HBuS5wtZss2o-33" value="[Valid infor]" style="text;html=1;strokeColor=none;fillColor=none;align=center;verticalAlign=middle;whiteSpace=wrap;rounded=0;" parent="1" vertex="1">
          <mxGeometry x="250" y="660" width="80" height="30" as="geometry" />
        </mxCell>
        <mxCell id="Obuxjyc1HBuS5wtZss2o-36" value="" style="html=1;points=[[0,0,0,0,5],[0,1,0,0,-5],[1,0,0,0,5],[1,1,0,0,-5]];perimeter=orthogonalPerimeter;outlineConnect=0;targetShapes=umlLifeline;portConstraint=eastwest;newEdgeStyle={&quot;curved&quot;:0,&quot;rounded&quot;:0};" parent="1" vertex="1">
          <mxGeometry x="855" y="650" width="10" height="110" as="geometry" />
        </mxCell>
        <mxCell id="Obuxjyc1HBuS5wtZss2o-37" value="6.saveGroupStudent()" style="html=1;verticalAlign=bottom;startArrow=none;endArrow=block;startSize=8;curved=0;rounded=0;startFill=0;" parent="1" source="Obuxjyc1HBuS5wtZss2o-22" target="Obuxjyc1HBuS5wtZss2o-36" edge="1">
          <mxGeometry relative="1" as="geometry">
            <mxPoint x="700" y="674.66" as="sourcePoint" />
            <mxPoint x="840" y="674.66" as="targetPoint" />
            <Array as="points">
              <mxPoint x="790" y="674.66" />
            </Array>
          </mxGeometry>
        </mxCell>
        <mxCell id="Obuxjyc1HBuS5wtZss2o-38" value="" style="html=1;points=[[0,0,0,0,5],[0,1,0,0,-5],[1,0,0,0,5],[1,1,0,0,-5]];perimeter=orthogonalPerimeter;outlineConnect=0;targetShapes=umlLifeline;portConstraint=eastwest;newEdgeStyle={&quot;curved&quot;:0,&quot;rounded&quot;:0};" parent="1" vertex="1">
          <mxGeometry x="1015" y="660" width="10" height="90" as="geometry" />
        </mxCell>
        <mxCell id="Obuxjyc1HBuS5wtZss2o-39" value="7.excuteUpdate()" style="html=1;verticalAlign=bottom;startArrow=none;endArrow=block;startSize=8;curved=0;rounded=0;startFill=0;" parent="1" source="Obuxjyc1HBuS5wtZss2o-36" target="Obuxjyc1HBuS5wtZss2o-38" edge="1">
          <mxGeometry relative="1" as="geometry">
            <mxPoint x="875" y="690.34" as="sourcePoint" />
            <mxPoint x="1015" y="690.34" as="targetPoint" />
            <Array as="points">
              <mxPoint x="950" y="690" />
            </Array>
          </mxGeometry>
        </mxCell>
        <mxCell id="Obuxjyc1HBuS5wtZss2o-40" value="8.Return resuilt" style="html=1;verticalAlign=bottom;endArrow=open;dashed=1;endSize=8;curved=0;rounded=0;" parent="1" edge="1">
          <mxGeometry relative="1" as="geometry">
            <mxPoint x="1015" y="735" as="sourcePoint" />
            <mxPoint x="865" y="735" as="targetPoint" />
          </mxGeometry>
        </mxCell>
        <mxCell id="Obuxjyc1HBuS5wtZss2o-41" value="9.Return resuilt" style="html=1;verticalAlign=bottom;endArrow=open;dashed=1;endSize=8;curved=0;rounded=0;" parent="1" edge="1">
          <mxGeometry relative="1" as="geometry">
            <mxPoint x="855" y="749.17" as="sourcePoint" />
            <mxPoint x="715" y="749.17" as="targetPoint" />
          </mxGeometry>
        </mxCell>
        <mxCell id="Obuxjyc1HBuS5wtZss2o-42" value="10.Return resuilt" style="html=1;verticalAlign=bottom;endArrow=open;dashed=1;endSize=8;curved=0;rounded=0;exitX=0;exitY=1;exitDx=0;exitDy=-5;exitPerimeter=0;" parent="1" source="Obuxjyc1HBuS5wtZss2o-22" target="Obuxjyc1HBuS5wtZss2o-17" edge="1">
          <mxGeometry relative="1" as="geometry">
            <mxPoint x="700" y="764.66" as="sourcePoint" />
            <mxPoint x="560" y="764.66" as="targetPoint" />
          </mxGeometry>
        </mxCell>
        <mxCell id="Obuxjyc1HBuS5wtZss2o-43" value="11: Return valid view" style="html=1;verticalAlign=bottom;endArrow=open;dashed=1;endSize=8;curved=0;rounded=0;" parent="1" source="Obuxjyc1HBuS5wtZss2o-17" target="Obuxjyc1HBuS5wtZss2o-9" edge="1">
          <mxGeometry relative="1" as="geometry">
            <mxPoint x="555" y="780" as="sourcePoint" />
            <mxPoint x="425" y="780" as="targetPoint" />
            <Array as="points">
              <mxPoint x="490" y="780" />
            </Array>
          </mxGeometry>
        </mxCell>
        <mxCell id="Obuxjyc1HBuS5wtZss2o-44" value="Student" style="text;html=1;strokeColor=none;fillColor=none;align=center;verticalAlign=middle;whiteSpace=wrap;rounded=0;" parent="1" vertex="1">
          <mxGeometry x="220" y="430" width="60" height="30" as="geometry" />
        </mxCell>
        <mxCell id="Obuxjyc1HBuS5wtZss2o-45" value="" style="whiteSpace=wrap;html=1;aspect=fixed;" parent="1" vertex="1">
          <mxGeometry x="110" y="1780" width="1130" height="1130" as="geometry" />
        </mxCell>
        <mxCell id="Obuxjyc1HBuS5wtZss2o-46" value="View" style="shape=umlLifeline;perimeter=lifelinePerimeter;whiteSpace=wrap;html=1;container=1;dropTarget=0;collapsible=0;recursiveResize=0;outlineConnect=0;portConstraint=eastwest;newEdgeStyle={&quot;curved&quot;:0,&quot;rounded&quot;:0};" parent="1" vertex="1">
          <mxGeometry x="360" y="1820" width="100" height="470" as="geometry" />
        </mxCell>
        <mxCell id="Obuxjyc1HBuS5wtZss2o-47" value="" style="shape=umlLifeline;perimeter=lifelinePerimeter;whiteSpace=wrap;html=1;container=1;dropTarget=0;collapsible=0;recursiveResize=0;outlineConnect=0;portConstraint=eastwest;newEdgeStyle={&quot;curved&quot;:0,&quot;rounded&quot;:0};participant=umlActor;size=40;" parent="1" vertex="1">
          <mxGeometry x="230" y="1820" width="20" height="450" as="geometry" />
        </mxCell>
        <mxCell id="Obuxjyc1HBuS5wtZss2o-48" value="" style="html=1;points=[[0,0,0,0,5],[0,1,0,0,-5],[1,0,0,0,5],[1,1,0,0,-5]];perimeter=orthogonalPerimeter;outlineConnect=0;targetShapes=umlLifeline;portConstraint=eastwest;newEdgeStyle={&quot;curved&quot;:0,&quot;rounded&quot;:0};" parent="1" vertex="1">
          <mxGeometry x="405" y="1910" width="10" height="330" as="geometry" />
        </mxCell>
        <mxCell id="Obuxjyc1HBuS5wtZss2o-49" value="1.Input project infor" style="html=1;verticalAlign=bottom;startArrow=none;endArrow=block;startSize=8;curved=0;rounded=0;entryX=0;entryY=0;entryDx=0;entryDy=5;startFill=0;" parent="1" source="Obuxjyc1HBuS5wtZss2o-47" target="Obuxjyc1HBuS5wtZss2o-48" edge="1">
          <mxGeometry relative="1" as="geometry">
            <mxPoint x="260" y="1965" as="sourcePoint" />
          </mxGeometry>
        </mxCell>
        <mxCell id="Obuxjyc1HBuS5wtZss2o-50" value=":Project controller" style="shape=umlLifeline;perimeter=lifelinePerimeter;whiteSpace=wrap;html=1;container=1;dropTarget=0;collapsible=0;recursiveResize=0;outlineConnect=0;portConstraint=eastwest;newEdgeStyle={&quot;curved&quot;:0,&quot;rounded&quot;:0};" parent="1" vertex="1">
          <mxGeometry x="500" y="1820" width="100" height="450" as="geometry" />
        </mxCell>
        <mxCell id="Obuxjyc1HBuS5wtZss2o-51" value="2.Click button Create" style="html=1;verticalAlign=bottom;startArrow=none;endArrow=block;startSize=8;curved=0;rounded=0;entryX=0;entryY=0;entryDx=0;entryDy=5;startFill=0;" parent="1" edge="1">
          <mxGeometry relative="1" as="geometry">
            <mxPoint x="240.19" y="1950" as="sourcePoint" />
            <mxPoint x="405.19" y="1950" as="targetPoint" />
          </mxGeometry>
        </mxCell>
        <mxCell id="Obuxjyc1HBuS5wtZss2o-52" value="" style="html=1;points=[[0,0,0,0,5],[0,1,0,0,-5],[1,0,0,0,5],[1,1,0,0,-5]];perimeter=orthogonalPerimeter;outlineConnect=0;targetShapes=umlLifeline;portConstraint=eastwest;newEdgeStyle={&quot;curved&quot;:0,&quot;rounded&quot;:0};" parent="1" vertex="1">
          <mxGeometry x="545" y="1950" width="10" height="280" as="geometry" />
        </mxCell>
        <mxCell id="Obuxjyc1HBuS5wtZss2o-53" value="3.saveProject()" style="html=1;verticalAlign=bottom;startArrow=none;endArrow=block;startSize=8;curved=0;rounded=0;startFill=0;" parent="1" source="Obuxjyc1HBuS5wtZss2o-48" target="Obuxjyc1HBuS5wtZss2o-52" edge="1">
          <mxGeometry relative="1" as="geometry">
            <mxPoint x="390" y="1989" as="sourcePoint" />
            <mxPoint x="555" y="1989" as="targetPoint" />
            <Array as="points">
              <mxPoint x="490" y="1970" />
            </Array>
          </mxGeometry>
        </mxCell>
        <mxCell id="Obuxjyc1HBuS5wtZss2o-54" value=":Project&amp;nbsp; service" style="shape=umlLifeline;perimeter=lifelinePerimeter;whiteSpace=wrap;html=1;container=1;dropTarget=0;collapsible=0;recursiveResize=0;outlineConnect=0;portConstraint=eastwest;newEdgeStyle={&quot;curved&quot;:0,&quot;rounded&quot;:0};" parent="1" vertex="1">
          <mxGeometry x="650" y="1820" width="100" height="440" as="geometry" />
        </mxCell>
        <mxCell id="Obuxjyc1HBuS5wtZss2o-55" value="" style="html=1;points=[[0,0,0,0,5],[0,1,0,0,-5],[1,0,0,0,5],[1,1,0,0,-5]];perimeter=orthogonalPerimeter;outlineConnect=0;targetShapes=umlLifeline;portConstraint=eastwest;newEdgeStyle={&quot;curved&quot;:0,&quot;rounded&quot;:0};" parent="1" vertex="1">
          <mxGeometry x="695" y="1970" width="10" height="240" as="geometry" />
        </mxCell>
        <mxCell id="Obuxjyc1HBuS5wtZss2o-56" value="4.saveProject()" style="html=1;verticalAlign=bottom;startArrow=none;endArrow=block;startSize=8;curved=0;rounded=0;startFill=0;" parent="1" edge="1">
          <mxGeometry relative="1" as="geometry">
            <mxPoint x="555" y="1990" as="sourcePoint" />
            <mxPoint x="695" y="1990" as="targetPoint" />
            <Array as="points">
              <mxPoint x="645" y="1990" />
            </Array>
          </mxGeometry>
        </mxCell>
        <mxCell id="Obuxjyc1HBuS5wtZss2o-57" value="&lt;font size=&quot;1&quot;&gt;Alt register topic&lt;/font&gt;&amp;nbsp;" style="shape=umlFrame;whiteSpace=wrap;html=1;pointerEvents=0;width=80;height=30;" parent="1" vertex="1">
          <mxGeometry x="200" y="2010" width="900" height="330" as="geometry" />
        </mxCell>
        <mxCell id="Obuxjyc1HBuS5wtZss2o-58" value=":Project Repository" style="shape=umlLifeline;perimeter=lifelinePerimeter;whiteSpace=wrap;html=1;container=1;dropTarget=0;collapsible=0;recursiveResize=0;outlineConnect=0;portConstraint=eastwest;newEdgeStyle={&quot;curved&quot;:0,&quot;rounded&quot;:0};" parent="1" vertex="1">
          <mxGeometry x="800" y="1820" width="100" height="430" as="geometry" />
        </mxCell>
        <mxCell id="Obuxjyc1HBuS5wtZss2o-59" value="Database" style="shape=umlLifeline;perimeter=lifelinePerimeter;whiteSpace=wrap;html=1;container=1;dropTarget=0;collapsible=0;recursiveResize=0;outlineConnect=0;portConstraint=eastwest;newEdgeStyle={&quot;curved&quot;:0,&quot;rounded&quot;:0};" parent="1" vertex="1">
          <mxGeometry x="960" y="1820" width="100" height="440" as="geometry" />
        </mxCell>
        <mxCell id="Obuxjyc1HBuS5wtZss2o-60" value="" style="endArrow=none;dashed=1;html=1;rounded=0;entryX=1.004;entryY=0.502;entryDx=0;entryDy=0;entryPerimeter=0;exitX=0;exitY=0.501;exitDx=0;exitDy=0;exitPerimeter=0;" parent="1" edge="1">
          <mxGeometry width="50" height="50" relative="1" as="geometry">
            <mxPoint x="200" y="2085.33" as="sourcePoint" />
            <mxPoint x="1103.6" y="2085.66" as="targetPoint" />
          </mxGeometry>
        </mxCell>
        <mxCell id="Obuxjyc1HBuS5wtZss2o-61" value="[Invalid infor]" style="text;html=1;strokeColor=none;fillColor=none;align=center;verticalAlign=middle;whiteSpace=wrap;rounded=0;" parent="1" vertex="1">
          <mxGeometry x="240" y="2050" width="80" height="30" as="geometry" />
        </mxCell>
        <mxCell id="Obuxjyc1HBuS5wtZss2o-62" value="5.1: Return invalid view" style="html=1;verticalAlign=bottom;endArrow=open;dashed=1;endSize=8;curved=0;rounded=0;" parent="1" edge="1">
          <mxGeometry relative="1" as="geometry">
            <mxPoint x="695" y="2040" as="sourcePoint" />
            <mxPoint x="555" y="2040" as="targetPoint" />
          </mxGeometry>
        </mxCell>
        <mxCell id="Obuxjyc1HBuS5wtZss2o-63" value="5.2: Return invalid view" style="html=1;verticalAlign=bottom;endArrow=open;dashed=1;endSize=8;curved=0;rounded=0;" parent="1" source="Obuxjyc1HBuS5wtZss2o-52" target="Obuxjyc1HBuS5wtZss2o-48" edge="1">
          <mxGeometry relative="1" as="geometry">
            <mxPoint x="545" y="2060" as="sourcePoint" />
            <mxPoint x="415" y="2060" as="targetPoint" />
            <Array as="points">
              <mxPoint x="480" y="2060" />
            </Array>
          </mxGeometry>
        </mxCell>
        <mxCell id="Obuxjyc1HBuS5wtZss2o-64" value="[Valid infor]" style="text;html=1;strokeColor=none;fillColor=none;align=center;verticalAlign=middle;whiteSpace=wrap;rounded=0;" parent="1" vertex="1">
          <mxGeometry x="240" y="2100" width="80" height="30" as="geometry" />
        </mxCell>
        <mxCell id="Obuxjyc1HBuS5wtZss2o-65" value="" style="html=1;points=[[0,0,0,0,5],[0,1,0,0,-5],[1,0,0,0,5],[1,1,0,0,-5]];perimeter=orthogonalPerimeter;outlineConnect=0;targetShapes=umlLifeline;portConstraint=eastwest;newEdgeStyle={&quot;curved&quot;:0,&quot;rounded&quot;:0};" parent="1" vertex="1">
          <mxGeometry x="845" y="2090" width="10" height="110" as="geometry" />
        </mxCell>
        <mxCell id="Obuxjyc1HBuS5wtZss2o-66" value="6.saveProject()" style="html=1;verticalAlign=bottom;startArrow=none;endArrow=block;startSize=8;curved=0;rounded=0;startFill=0;" parent="1" source="Obuxjyc1HBuS5wtZss2o-55" target="Obuxjyc1HBuS5wtZss2o-65" edge="1">
          <mxGeometry relative="1" as="geometry">
            <mxPoint x="690" y="2114.66" as="sourcePoint" />
            <mxPoint x="830" y="2114.66" as="targetPoint" />
            <Array as="points">
              <mxPoint x="780" y="2114.66" />
            </Array>
          </mxGeometry>
        </mxCell>
        <mxCell id="Obuxjyc1HBuS5wtZss2o-67" value="" style="html=1;points=[[0,0,0,0,5],[0,1,0,0,-5],[1,0,0,0,5],[1,1,0,0,-5]];perimeter=orthogonalPerimeter;outlineConnect=0;targetShapes=umlLifeline;portConstraint=eastwest;newEdgeStyle={&quot;curved&quot;:0,&quot;rounded&quot;:0};" parent="1" vertex="1">
          <mxGeometry x="1005" y="2100" width="10" height="90" as="geometry" />
        </mxCell>
        <mxCell id="Obuxjyc1HBuS5wtZss2o-68" value="7.excuteUpdate()" style="html=1;verticalAlign=bottom;startArrow=none;endArrow=block;startSize=8;curved=0;rounded=0;startFill=0;" parent="1" source="Obuxjyc1HBuS5wtZss2o-65" target="Obuxjyc1HBuS5wtZss2o-67" edge="1">
          <mxGeometry relative="1" as="geometry">
            <mxPoint x="865" y="2130.34" as="sourcePoint" />
            <mxPoint x="1005" y="2130.34" as="targetPoint" />
            <Array as="points">
              <mxPoint x="940" y="2130" />
            </Array>
          </mxGeometry>
        </mxCell>
        <mxCell id="Obuxjyc1HBuS5wtZss2o-69" value="8.Return resuilt" style="html=1;verticalAlign=bottom;endArrow=open;dashed=1;endSize=8;curved=0;rounded=0;" parent="1" edge="1">
          <mxGeometry relative="1" as="geometry">
            <mxPoint x="1005" y="2175" as="sourcePoint" />
            <mxPoint x="855" y="2175" as="targetPoint" />
          </mxGeometry>
        </mxCell>
        <mxCell id="Obuxjyc1HBuS5wtZss2o-70" value="9.Return resuilt" style="html=1;verticalAlign=bottom;endArrow=open;dashed=1;endSize=8;curved=0;rounded=0;" parent="1" edge="1">
          <mxGeometry relative="1" as="geometry">
            <mxPoint x="845" y="2189.17" as="sourcePoint" />
            <mxPoint x="705" y="2189.17" as="targetPoint" />
          </mxGeometry>
        </mxCell>
        <mxCell id="Obuxjyc1HBuS5wtZss2o-71" value="10.Return resuilt" style="html=1;verticalAlign=bottom;endArrow=open;dashed=1;endSize=8;curved=0;rounded=0;exitX=0;exitY=1;exitDx=0;exitDy=-5;exitPerimeter=0;" parent="1" source="Obuxjyc1HBuS5wtZss2o-55" target="Obuxjyc1HBuS5wtZss2o-52" edge="1">
          <mxGeometry relative="1" as="geometry">
            <mxPoint x="690" y="2204.66" as="sourcePoint" />
            <mxPoint x="550" y="2204.66" as="targetPoint" />
          </mxGeometry>
        </mxCell>
        <mxCell id="Obuxjyc1HBuS5wtZss2o-72" value="11: Return valid view" style="html=1;verticalAlign=bottom;endArrow=open;dashed=1;endSize=8;curved=0;rounded=0;" parent="1" source="Obuxjyc1HBuS5wtZss2o-52" target="Obuxjyc1HBuS5wtZss2o-48" edge="1">
          <mxGeometry relative="1" as="geometry">
            <mxPoint x="545" y="2220" as="sourcePoint" />
            <mxPoint x="415" y="2220" as="targetPoint" />
            <Array as="points">
              <mxPoint x="480" y="2220" />
            </Array>
          </mxGeometry>
        </mxCell>
        <mxCell id="Obuxjyc1HBuS5wtZss2o-73" value="Student" style="text;html=1;strokeColor=none;fillColor=none;align=center;verticalAlign=middle;whiteSpace=wrap;rounded=0;" parent="1" vertex="1">
          <mxGeometry x="210" y="1870" width="60" height="30" as="geometry" />
        </mxCell>
        <mxCell id="0_LsE8-xMEEQpSqu9TF8-1" value="" style="whiteSpace=wrap;html=1;aspect=fixed;" parent="1" vertex="1">
          <mxGeometry x="70" y="3100" width="1090" height="1090" as="geometry" />
        </mxCell>
        <mxCell id="0_LsE8-xMEEQpSqu9TF8-2" value="View" style="shape=umlLifeline;perimeter=lifelinePerimeter;whiteSpace=wrap;html=1;container=1;dropTarget=0;collapsible=0;recursiveResize=0;outlineConnect=0;portConstraint=eastwest;newEdgeStyle={&quot;curved&quot;:0,&quot;rounded&quot;:0};" parent="1" vertex="1">
          <mxGeometry x="330" y="3160" width="100" height="350" as="geometry" />
        </mxCell>
        <mxCell id="0_LsE8-xMEEQpSqu9TF8-3" value="" style="shape=umlLifeline;perimeter=lifelinePerimeter;whiteSpace=wrap;html=1;container=1;dropTarget=0;collapsible=0;recursiveResize=0;outlineConnect=0;portConstraint=eastwest;newEdgeStyle={&quot;curved&quot;:0,&quot;rounded&quot;:0};participant=umlActor;size=40;" parent="1" vertex="1">
          <mxGeometry x="200" y="3160" width="20" height="350" as="geometry" />
        </mxCell>
        <mxCell id="0_LsE8-xMEEQpSqu9TF8-4" value="" style="html=1;points=[[0,0,0,0,5],[0,1,0,0,-5],[1,0,0,0,5],[1,1,0,0,-5]];perimeter=orthogonalPerimeter;outlineConnect=0;targetShapes=umlLifeline;portConstraint=eastwest;newEdgeStyle={&quot;curved&quot;:0,&quot;rounded&quot;:0};" parent="1" vertex="1">
          <mxGeometry x="375" y="3250" width="10" height="240" as="geometry" />
        </mxCell>
        <mxCell id="0_LsE8-xMEEQpSqu9TF8-5" value="1.Click button yes" style="html=1;verticalAlign=bottom;startArrow=none;endArrow=block;startSize=8;curved=0;rounded=0;entryX=0;entryY=0;entryDx=0;entryDy=5;startFill=0;" parent="1" edge="1">
          <mxGeometry relative="1" as="geometry">
            <mxPoint x="210" y="3350" as="sourcePoint" />
            <mxPoint x="375.75" y="3350" as="targetPoint" />
          </mxGeometry>
        </mxCell>
        <mxCell id="0_LsE8-xMEEQpSqu9TF8-6" value=":Student controller" style="shape=umlLifeline;perimeter=lifelinePerimeter;whiteSpace=wrap;html=1;container=1;dropTarget=0;collapsible=0;recursiveResize=0;outlineConnect=0;portConstraint=eastwest;newEdgeStyle={&quot;curved&quot;:0,&quot;rounded&quot;:0};" parent="1" vertex="1">
          <mxGeometry x="470" y="3160" width="100" height="350" as="geometry" />
        </mxCell>
        <mxCell id="0_LsE8-xMEEQpSqu9TF8-8" value="" style="html=1;points=[[0,0,0,0,5],[0,1,0,0,-5],[1,0,0,0,5],[1,1,0,0,-5]];perimeter=orthogonalPerimeter;outlineConnect=0;targetShapes=umlLifeline;portConstraint=eastwest;newEdgeStyle={&quot;curved&quot;:0,&quot;rounded&quot;:0};" parent="1" vertex="1">
          <mxGeometry x="515" y="3290" width="10" height="190" as="geometry" />
        </mxCell>
        <mxCell id="0_LsE8-xMEEQpSqu9TF8-9" value="2.setGroupStudentID()" style="html=1;verticalAlign=bottom;startArrow=none;endArrow=block;startSize=8;curved=0;rounded=0;startFill=0;" parent="1" source="0_LsE8-xMEEQpSqu9TF8-4" target="0_LsE8-xMEEQpSqu9TF8-8" edge="1">
          <mxGeometry relative="1" as="geometry">
            <mxPoint x="360" y="3329" as="sourcePoint" />
            <mxPoint x="525" y="3329" as="targetPoint" />
            <Array as="points">
              <mxPoint x="460" y="3310" />
            </Array>
          </mxGeometry>
        </mxCell>
        <mxCell id="0_LsE8-xMEEQpSqu9TF8-10" value=":Student service" style="shape=umlLifeline;perimeter=lifelinePerimeter;whiteSpace=wrap;html=1;container=1;dropTarget=0;collapsible=0;recursiveResize=0;outlineConnect=0;portConstraint=eastwest;newEdgeStyle={&quot;curved&quot;:0,&quot;rounded&quot;:0};" parent="1" vertex="1">
          <mxGeometry x="620" y="3160" width="100" height="350" as="geometry" />
        </mxCell>
        <mxCell id="0_LsE8-xMEEQpSqu9TF8-11" value="" style="html=1;points=[[0,0,0,0,5],[0,1,0,0,-5],[1,0,0,0,5],[1,1,0,0,-5]];perimeter=orthogonalPerimeter;outlineConnect=0;targetShapes=umlLifeline;portConstraint=eastwest;newEdgeStyle={&quot;curved&quot;:0,&quot;rounded&quot;:0};" parent="0_LsE8-xMEEQpSqu9TF8-10" vertex="1">
          <mxGeometry x="45" y="170" width="10" height="140" as="geometry" />
        </mxCell>
        <mxCell id="0_LsE8-xMEEQpSqu9TF8-12" value="3.setGroupStudentID()" style="html=1;verticalAlign=bottom;startArrow=none;endArrow=block;startSize=8;curved=0;rounded=0;startFill=0;" parent="1" target="0_LsE8-xMEEQpSqu9TF8-11" edge="1">
          <mxGeometry relative="1" as="geometry">
            <mxPoint x="525" y="3330" as="sourcePoint" />
            <mxPoint x="670" y="3330" as="targetPoint" />
            <Array as="points">
              <mxPoint x="615" y="3330" />
            </Array>
          </mxGeometry>
        </mxCell>
        <mxCell id="0_LsE8-xMEEQpSqu9TF8-13" value="&lt;font size=&quot;1&quot;&gt;Alt register Goup student&lt;/font&gt;&amp;nbsp;" style="shape=umlFrame;whiteSpace=wrap;html=1;pointerEvents=0;width=80;height=30;" parent="1" vertex="1">
          <mxGeometry x="175" y="3240" width="900" height="330" as="geometry" />
        </mxCell>
        <mxCell id="0_LsE8-xMEEQpSqu9TF8-14" value=":Student Repository" style="shape=umlLifeline;perimeter=lifelinePerimeter;whiteSpace=wrap;html=1;container=1;dropTarget=0;collapsible=0;recursiveResize=0;outlineConnect=0;portConstraint=eastwest;newEdgeStyle={&quot;curved&quot;:0,&quot;rounded&quot;:0};" parent="1" vertex="1">
          <mxGeometry x="770" y="3160" width="100" height="340" as="geometry" />
        </mxCell>
        <mxCell id="0_LsE8-xMEEQpSqu9TF8-21" value="" style="html=1;points=[[0,0,0,0,5],[0,1,0,0,-5],[1,0,0,0,5],[1,1,0,0,-5]];perimeter=orthogonalPerimeter;outlineConnect=0;targetShapes=umlLifeline;portConstraint=eastwest;newEdgeStyle={&quot;curved&quot;:0,&quot;rounded&quot;:0};" parent="0_LsE8-xMEEQpSqu9TF8-14" vertex="1">
          <mxGeometry x="45" y="170" width="10" height="110" as="geometry" />
        </mxCell>
        <mxCell id="0_LsE8-xMEEQpSqu9TF8-15" value="Database" style="shape=umlLifeline;perimeter=lifelinePerimeter;whiteSpace=wrap;html=1;container=1;dropTarget=0;collapsible=0;recursiveResize=0;outlineConnect=0;portConstraint=eastwest;newEdgeStyle={&quot;curved&quot;:0,&quot;rounded&quot;:0};" parent="1" vertex="1">
          <mxGeometry x="930" y="3160" width="100" height="340" as="geometry" />
        </mxCell>
        <mxCell id="0_LsE8-xMEEQpSqu9TF8-23" value="" style="html=1;points=[[0,0,0,0,5],[0,1,0,0,-5],[1,0,0,0,5],[1,1,0,0,-5]];perimeter=orthogonalPerimeter;outlineConnect=0;targetShapes=umlLifeline;portConstraint=eastwest;newEdgeStyle={&quot;curved&quot;:0,&quot;rounded&quot;:0};" parent="0_LsE8-xMEEQpSqu9TF8-15" vertex="1">
          <mxGeometry x="45" y="180" width="10" height="90" as="geometry" />
        </mxCell>
        <mxCell id="0_LsE8-xMEEQpSqu9TF8-16" value="" style="endArrow=none;dashed=1;html=1;rounded=0;entryX=1.004;entryY=0.502;entryDx=0;entryDy=0;entryPerimeter=0;exitX=0;exitY=0.501;exitDx=0;exitDy=0;exitPerimeter=0;" parent="1" edge="1">
          <mxGeometry width="50" height="50" relative="1" as="geometry">
            <mxPoint x="170" y="3485.33" as="sourcePoint" />
            <mxPoint x="1073.6" y="3485.66" as="targetPoint" />
          </mxGeometry>
        </mxCell>
        <mxCell id="0_LsE8-xMEEQpSqu9TF8-17" value="[click button yes]" style="text;html=1;strokeColor=none;fillColor=none;align=center;verticalAlign=middle;whiteSpace=wrap;rounded=0;" parent="1" vertex="1">
          <mxGeometry x="210" y="3280" width="100" height="30" as="geometry" />
        </mxCell>
        <mxCell id="0_LsE8-xMEEQpSqu9TF8-18" value="7: Return resuilt" style="html=1;verticalAlign=bottom;endArrow=open;dashed=1;endSize=8;curved=0;rounded=0;" parent="1" source="0_LsE8-xMEEQpSqu9TF8-11" target="0_LsE8-xMEEQpSqu9TF8-8" edge="1">
          <mxGeometry x="-0.0062" relative="1" as="geometry">
            <mxPoint x="665" y="3420" as="sourcePoint" />
            <mxPoint x="525" y="3420" as="targetPoint" />
            <Array as="points">
              <mxPoint x="620" y="3430" />
            </Array>
            <mxPoint as="offset" />
          </mxGeometry>
        </mxCell>
        <mxCell id="0_LsE8-xMEEQpSqu9TF8-19" value="8: Return valid view" style="html=1;verticalAlign=bottom;endArrow=open;dashed=1;endSize=8;curved=0;rounded=0;" parent="1" source="0_LsE8-xMEEQpSqu9TF8-8" target="0_LsE8-xMEEQpSqu9TF8-4" edge="1">
          <mxGeometry relative="1" as="geometry">
            <mxPoint x="510" y="3450" as="sourcePoint" />
            <mxPoint x="380" y="3450" as="targetPoint" />
            <Array as="points">
              <mxPoint x="445" y="3450" />
            </Array>
          </mxGeometry>
        </mxCell>
        <mxCell id="0_LsE8-xMEEQpSqu9TF8-25" value="6.Return resuilt" style="html=1;verticalAlign=bottom;endArrow=open;dashed=1;endSize=8;curved=0;rounded=0;" parent="1" edge="1">
          <mxGeometry relative="1" as="geometry">
            <mxPoint x="975" y="3395" as="sourcePoint" />
            <mxPoint x="825" y="3395" as="targetPoint" />
          </mxGeometry>
        </mxCell>
        <mxCell id="0_LsE8-xMEEQpSqu9TF8-29" value="Student" style="text;html=1;strokeColor=none;fillColor=none;align=center;verticalAlign=middle;whiteSpace=wrap;rounded=0;" parent="1" vertex="1">
          <mxGeometry x="180" y="3210" width="60" height="30" as="geometry" />
        </mxCell>
        <mxCell id="0_LsE8-xMEEQpSqu9TF8-31" value="4.setGroupStudentID()" style="html=1;verticalAlign=bottom;startArrow=none;endArrow=block;startSize=8;curved=0;rounded=0;startFill=0;" parent="1" target="0_LsE8-xMEEQpSqu9TF8-21" edge="1">
          <mxGeometry x="0.0062" relative="1" as="geometry">
            <mxPoint x="675" y="3340" as="sourcePoint" />
            <mxPoint x="819.4999999999998" y="3340" as="targetPoint" />
            <Array as="points">
              <mxPoint x="755" y="3340" />
            </Array>
            <mxPoint as="offset" />
          </mxGeometry>
        </mxCell>
        <mxCell id="0_LsE8-xMEEQpSqu9TF8-34" value="5.ExcuteUpdate()" style="html=1;verticalAlign=bottom;startArrow=none;endArrow=block;startSize=8;curved=0;rounded=0;startFill=0;" parent="1" source="0_LsE8-xMEEQpSqu9TF8-21" target="0_LsE8-xMEEQpSqu9TF8-23" edge="1">
          <mxGeometry x="0.0062" relative="1" as="geometry">
            <mxPoint x="830" y="3360" as="sourcePoint" />
            <mxPoint x="970" y="3360" as="targetPoint" />
            <Array as="points">
              <mxPoint x="910" y="3360" />
            </Array>
            <mxPoint as="offset" />
          </mxGeometry>
        </mxCell>
        <mxCell id="0_LsE8-xMEEQpSqu9TF8-35" value="6.Return resuilt" style="html=1;verticalAlign=bottom;endArrow=open;dashed=1;endSize=8;curved=0;rounded=0;" parent="1" source="0_LsE8-xMEEQpSqu9TF8-21" edge="1">
          <mxGeometry x="0.0062" relative="1" as="geometry">
            <mxPoint x="815" y="3405" as="sourcePoint" />
            <mxPoint x="675" y="3405" as="targetPoint" />
            <mxPoint as="offset" />
          </mxGeometry>
        </mxCell>
      </root>
    </mxGraphModel>
  </diagram>
</mxfile>
